<svg width="12" height="13" viewBox="0 0 12 13" fill="none" xmlns="http://www.w3.org/2000/svg">
<g clip-path="url(#clip0_5_387)">
<path fill-rule="evenodd" clip-rule="evenodd" d="M5.66024 1.09214L4.11374 4.42401L0.416242 4.90026C0.344975 4.90933 0.277811 4.93867 0.222742 4.98481C0.167672 5.03094 0.127013 5.09193 0.105603 5.16051C0.0841922 5.22908 0.0829308 5.30237 0.101969 5.37164C0.121007 5.44091 0.159542 5.50326 0.212992 5.55126L2.94787 8.01314L2.21099 11.7076C2.19681 11.7784 2.20337 11.8518 2.22989 11.919C2.25641 11.9862 2.30176 12.0443 2.36049 12.0863C2.41922 12.1283 2.48883 12.1525 2.56097 12.1559C2.6331 12.1593 2.70468 12.1418 2.76712 12.1055L5.99999 10.2316L9.23437 12.1055C9.29677 12.1416 9.36826 12.159 9.44028 12.1556C9.5123 12.1521 9.5818 12.128 9.64045 12.086C9.69909 12.0441 9.7444 11.9861 9.77095 11.9191C9.7975 11.852 9.80415 11.7787 9.79012 11.708L9.05324 8.01314L11.7881 5.55126C11.8414 5.50326 11.8799 5.44097 11.8989 5.37178C11.9178 5.3026 11.9166 5.22941 11.8952 5.16092C11.8739 5.09243 11.8333 5.0315 11.7784 4.98536C11.7234 4.93923 11.6564 4.90982 11.5852 4.90064L7.88774 4.42401L6.34012 1.09214C6.31001 1.0273 6.262 0.972414 6.20174 0.933955C6.14148 0.895495 6.07148 0.875061 5.99999 0.875061C5.9285 0.875061 5.85851 0.895495 5.79824 0.933955C5.73798 0.972414 5.68997 1.0273 5.65987 1.09214H5.66024Z" fill="#717171"/>
</g>
<defs>
<clipPath id="clip0_5_387">
<rect width="12" height="12" fill="white" transform="translate(0 0.5)"/>
</clipPath>
</defs>
</svg>
